<?xml version="1.0"?><svg width="487.932" height="490.305" xmlns="http://www.w3.org/2000/svg">
 <title>Blue Compass</title>
 <g>
  <title>Layer 1</title>
  <line transform="rotate(0.446088, 245.932, 246.205)" id="svg_27" y2="244.253034" x2="446.357344" y1="248.157297" x1="45.507096" opacity="0.75" stroke-linejoin="round" stroke-width="1.8528" stroke="#00007f" fill="none"/>
  <path fill="#003f7f" stroke="#007fff" stroke-width="3.5252" stroke-linejoin="round" stroke-miterlimit="10" d="m395.319794,203.965439c23.388367,83.560379 -26.583557,170.062881 -111.542816,193.085617c-84.960434,23.02179 -172.89418,-26.110596 -196.281448,-109.670837c-23.387283,-83.560394 26.584679,-170.062973 111.545074,-193.085747c84.959244,-23.021698 172.89299,26.110664 196.27919,109.670967l0,0z" id="svg_5"/>
  <path fill="#ffffff" stroke="#00007f" stroke-width="3.1636" stroke-linejoin="round" stroke-miterlimit="10" d="m374.813263,210.214523c20.026794,72.729446 -23.360413,147.848465 -96.850189,167.675674c-73.486511,19.828217 -149.382935,-23.106781 -169.409782,-95.836182c-20.02684,-72.730576 23.360405,-147.84848 96.84803,-167.676712c73.487595,-19.826096 149.382889,23.107788 169.411942,95.837219l0,0z" id="svg_14"/>
  <path fill="#00007f" stroke="#000000" stroke-width="1.8528" stroke-linejoin="round" stroke-miterlimit="10" d="m193.423889,170.137192c-0.510864,-1.794296 6.325317,-5.374405 6.78775,-3.75209c5.240189,12.857834 8.144302,16.171997 8.144302,16.171997l-5.289215,2.905563c0.905457,1.023117 -3.711212,-8.627823 -9.642838,-15.32547l0,0m44.4561,-13.940735c0.455139,-1.810455 8.166321,-1.492294 7.753952,0.144257c-1.892014,13.755859 -1.033844,18.077454 -1.033844,18.077454l-6.033234,-0.128265c0.273407,1.340317 1.100571,-9.326752 -0.686874,-18.093445l0,0m45.470108,10.155182c1.299042,-1.340118 7.818024,2.790405 6.643524,4.001877c-8.516174,10.967331 -9.933197,15.138138 -9.933197,15.138138l-5.16098,-3.127655c-0.432373,1.296387 5.617035,-7.526886 8.450653,-16.01236l0,0m34.300903,31.529297c1.795258,-0.511414 5.374359,6.325348 3.752991,6.787216c-12.858765,5.240738 -16.171967,8.144272 -16.171967,8.144272l-2.905579,-5.289215c-1.024475,0.907501 8.627838,-3.711166 15.324554,-9.642273l0,0m13.94223,44.456467c1.80896,0.454727 1.490784,8.165894 -0.145721,7.753525c-13.756317,-1.890503 -18.076935,-1.032913 -18.076935,-1.032913l0.128235,-6.033188c-1.339722,0.274384 9.328247,1.100967 18.094421,-0.687424l0,0m-10.155182,45.470032c1.341034,1.298523 -2.791901,7.817566 -4.001862,6.643463c-10.967377,-8.516052 -15.138214,-9.933167 -15.138214,-9.933167l3.125793,-5.159851c-1.296936,-0.433289 7.528778,5.615967 16.014282,8.449554l0,0m-31.529755,34.302338c0.51178,1.793762 -6.325897,5.373505 -6.7883,3.751129c-5.240204,-12.857788 -8.143768,-16.171051 -8.143768,-16.171051l5.290192,-2.906067c-0.906952,-1.023529 3.70874,8.62796 9.641876,15.325989l0,0m-44.457596,13.940338c-0.453674,1.810913 -8.165359,1.491791 -7.754532,-0.145172c1.891098,-13.75531 1.033463,-18.075958 1.033463,-18.075958l6.033218,0.128235c-0.272476,-1.34082 -1.099594,9.326233 0.687851,18.092896l0,0m-45.469574,-10.154205c-1.299026,1.340118 -7.817581,-2.79184 -6.643478,-4.001862c8.515137,-10.966766 9.933197,-15.138123 9.933197,-15.138123l5.16095,3.127625c0.432785,-1.297882 -5.616119,7.526306 -8.450668,16.01236l0,0m-34.301422,-31.530304c-1.795273,0.511444 -5.37442,-6.325287 -3.752121,-6.78775c12.857849,-5.240173 16.171082,-8.143707 16.171082,-8.143707l2.905563,5.289215c1.023544,-0.906921 -8.627411,3.709686 -15.324524,9.642242l0,0m-13.941315,-44.45697c-1.81044,-0.455124 -1.491714,-8.165359 0.145218,-7.754501c13.755325,1.891083 18.07695,1.032928 18.07695,1.032928l-0.128265,6.033203c1.339325,-0.272873 -9.327194,-1.09906 -18.093903,0.68837l0,0m10.155212,-45.470032c-1.340118,-1.299026 2.790955,-7.817078 4.001862,-6.643494c10.967331,8.516083 15.138168,9.933182 15.138168,9.933182l-3.127686,5.160965c1.297928,0.4328 -7.526306,-5.616135 -16.012344,-8.450653l0,0" id="svg_18"/>
  <path fill="none" stroke="#000000" stroke-width="0.5892" stroke-linejoin="round" stroke-miterlimit="10" d="m294.334656,195.564087c18.615967,18.65596 25.298706,43.712051 18.451111,69.160767c-6.850189,25.450195 -25.206268,43.76535 -50.671173,50.557739c-25.463913,6.794128 -50.50444,0.054199 -69.119522,-18.602264c-18.615097,-18.656433 -25.298203,-43.711182 -18.449738,-69.160385c6.849335,-25.449707 25.206238,-43.76535 50.670654,-50.558609c25.464417,-6.793259 50.50444,-0.054199 69.118668,18.602753l0,0" id="svg_2"/>
  <polygon opacity="0.75" fill-rule="evenodd" clip-rule="evenodd" fill="#003f7f" points="343.0218731441055,144.98857893088643 265.89651557904654,246.15003136124324 342.79861021738907,347.4783708439718 241.63776278096339,270.35405859031744 140.3077318870328,347.25572007918527 217.4326468753843,246.09590082518844 140.53101183593026,144.76589449236053 241.69080389713054,221.89082971019343 343.0218731441055,144.98857893088643 " id="svg_15"/>
  <polygon stroke="#00007f" fill="#003f7f" fill-rule="evenodd" clip-rule="evenodd" points="423.7144775390625,247.320556640625 263.69488525390625,267.19403076171875 243.46856689453125,427.1705017089844 223.5950927734375,267.15087890625 63.61895751953125,246.92318725585938 223.63909912109375,227.050537109375 243.86590576171875,67.07498168945312 263.7393798828125,227.0946044921875 423.7144775390625,247.320556640625 " id="svg_16"/>
  <polygon fill-rule="evenodd" clip-rule="evenodd" fill="#FFFFFF" points="256.3226351208923,242.91790336171834 267.7857533938677,232.1126118274151 394.91523608794523,243.07036780616363 256.3226351208923,242.91790336171834 " id="svg_19"/>
  <polygon fill-rule="evenodd" clip-rule="evenodd" fill="#FFFFFF" points="247.30387830415748,257.17027350664466 258.06162177382976,269.17200818637866 247.1519032144979,395.7637548003131 247.30387830415748,257.17027350664466 " id="svg_20"/>
  <polygon fill-rule="evenodd" clip-rule="evenodd" fill="#FFFFFF" points="231.0089992988478,249.327758341582 218.9563918062513,260.08130781065483 92.41500220458147,249.17491815493395 231.0089992988478,249.327758341582 " id="svg_21"/>
  <polygon fill-rule="evenodd" clip-rule="evenodd" fill="#FFFFFF" points="240.45968524148157,233.46497952720347 229.7915463537638,220.4365579827945 240.61354380641933,94.87272024172762 240.45968524148157,233.46497952720347 " id="svg_22"/>
  <path fill-rule="evenodd" clip-rule="evenodd" fill="#FFFCFC" d="m258.561127,231.259262c8.204193,8.222855 8.189056,21.554138 -0.032928,29.757828c-8.222839,8.204193 -21.554108,8.189056 -29.757813,-0.032928c-8.204193,-8.22287 -8.18956,-21.554977 0.032928,-29.757813c8.222855,-8.204208 21.554077,-8.189056 29.757813,0.032913l0,0z" id="svg_23"/>
  <path fill="#00007f" stroke="#007fff" stroke-width="2.9459" stroke-linejoin="round" stroke-miterlimit="10" d="m258.561127,231.259262c8.204193,8.222855 8.189056,21.554138 -0.032928,29.757828c-8.222839,8.204193 -21.554108,8.189056 -29.757813,-0.032928c-8.204193,-8.22287 -8.18956,-21.554977 0.032928,-29.757813c8.222855,-8.204208 21.554077,-8.189056 29.757813,0.032913l0,0z" id="svg_24"/>
  <path fill-rule="evenodd" clip-rule="evenodd" fill="#888888" d="m227.528976,247.304489c3.303391,11.465195 13.291092,15.575272 29.356979,11.303757c0.235748,0.092712 -9.662277,6.728668 -17.651672,4.569672c-9.529449,-2.574951 -13.558533,-15.582809 -11.705307,-15.873428l0,0z" id="svg_33"/>
  <path fill-rule="evenodd" clip-rule="evenodd" fill="#888888" d="m260.990143,250.642197c1.358795,-12.591034 -10.276031,-24.310364 -22.905243,-22.811905c-0.172668,-0.185593 7.416092,-1.625885 14.844986,2.022552c10.702652,5.25737 10.62059,21.049316 8.060257,20.789352l0,0z" id="svg_34"/>
  <polygon fill="none" stroke="#007fff" stroke-width="2.0905" stroke-linejoin="round" stroke-miterlimit="10" points="424.7145080566406,247.320556640625 264.69488525390625,267.19403076171875 244.46856689453125,427.1705322265625 224.59506225585938,267.15087890625 64.61898803710938,246.92318725585938 224.63909912109375,227.050537109375 244.86590576171875,67.07498168945312 264.7393798828125,227.0946044921875 424.7145080566406,247.320556640625 " id="svg_17"/>
 </g>

</svg>